<svg width="49" height="32" viewBox="0 0 49 32" fill="none" xmlns="http://www.w3.org/2000/svg">
<path fill-rule="evenodd" clip-rule="evenodd" d="M12.1761 2C12.2621 2 12.3363 2.03048 12.3988 2.09143C12.4613 2.15238 12.4925 2.22476 12.4925 2.30857V4.04571C12.4925 4.12952 12.4613 4.20191 12.3988 4.26286C12.3363 4.32381 12.2621 4.35429 12.1761 4.35429H7.57089V5.08571H11.4144C11.5004 5.08571 11.5746 5.11619 11.6371 5.17714C11.6996 5.2381 11.7308 5.31048 11.7308 5.39429V7.12C11.7308 7.20381 11.6996 7.27619 11.6371 7.33714C11.5746 7.39809 11.5004 7.42857 11.4144 7.42857H7.57089V9.69143C7.57089 9.77524 7.53964 9.84762 7.47714 9.90857C7.41465 9.96952 7.34043 10 7.2545 10H4.72337C4.63744 10 4.56322 9.96952 4.50073 9.90857C4.43823 9.84762 4.40698 9.77524 4.40698 9.69143V2.30857C4.40698 2.22476 4.43823 2.15238 4.50073 2.09143C4.56322 2.03048 4.63744 2 4.72337 2H12.1761ZM19.7649 7.65714H21.8859C21.9718 7.65714 22.0461 7.68762 22.1086 7.74857C22.1711 7.80952 22.2023 7.88191 22.2023 7.96571V9.69143C22.2023 9.77524 22.1711 9.84762 22.1086 9.90857C22.0461 9.96952 21.9718 10 21.8859 10H14.4566C14.3707 10 14.2964 9.96952 14.2339 9.90857C14.1714 9.84762 14.1402 9.77524 14.1402 9.69143V7.96571C14.1402 7.88191 14.1714 7.80952 14.2339 7.74857C14.2964 7.68762 14.3707 7.65714 14.4566 7.65714H16.601V4.34286H14.4566C14.3707 4.34286 14.2964 4.31238 14.2339 4.25143C14.1714 4.19048 14.1402 4.1181 14.1402 4.03429V2.30857C14.1402 2.22476 14.1714 2.15238 14.2339 2.09143C14.2964 2.03048 14.3707 2 14.4566 2H21.8859C21.9718 2 22.0461 2.03048 22.1086 2.09143C22.1711 2.15238 22.2023 2.22476 22.2023 2.30857V4.03429C22.2023 4.1181 22.1711 4.19048 22.1086 4.25143C22.0461 4.31238 21.9718 4.34286 21.8859 4.34286H19.7649V7.65714ZM32.0175 2.09143C31.955 2.03048 31.8808 2 31.7949 2H29.6153C29.5294 2 29.4552 2.03048 29.3927 2.09143C29.3302 2.15238 29.2989 2.22476 29.2989 2.30857V5.66857L26.7444 2.22857C26.6272 2.07619 26.4749 2 26.2874 2H24.389C24.3031 2 24.2289 2.03048 24.1664 2.09143C24.1039 2.15238 24.0726 2.22476 24.0726 2.30857V9.69143C24.0726 9.77524 24.1039 9.84762 24.1664 9.90857C24.2289 9.96952 24.3031 10 24.389 10H26.5686C26.6545 10 26.7287 9.96952 26.7912 9.90857C26.8537 9.84762 26.885 9.77524 26.885 9.69143V6.58286L29.4396 9.76C29.5645 9.92 29.7208 10 29.9083 10H31.7949C31.8808 10 31.955 9.96952 32.0175 9.90857C32.08 9.84762 32.1113 9.77524 32.1113 9.69143V2.30857C32.1113 2.22476 32.08 2.15238 32.0175 2.09143ZM38.0478 2C39.3681 2 40.4227 2.2781 41.2117 2.83429C42.0086 3.39048 42.407 4.25143 42.407 5.41714V6.58286C42.407 7.77143 42.0125 8.64 41.2234 9.18857C40.4422 9.72952 39.3837 10 38.0478 10H34.3097C34.2238 10 34.1496 9.96952 34.0871 9.90857C34.0246 9.84762 33.9933 9.77524 33.9933 9.69143V2.30857C33.9933 2.22476 34.0246 2.15238 34.0871 2.09143C34.1496 2.03048 34.2238 2 34.3097 2H38.0478ZM38.1064 7.77143C38.4736 7.77143 38.7626 7.68762 38.9736 7.52C39.1923 7.34476 39.3017 7.10095 39.3017 6.78857V5.21143C39.3017 4.89905 39.1923 4.65905 38.9736 4.49143C38.7626 4.31619 38.4736 4.22857 38.1064 4.22857H37.0401V7.77143H38.1064ZM25.7413 17.7222C25.8281 17.7222 25.9031 17.7519 25.9662 17.8111C26.0293 17.8704 26.0609 17.9407 26.0609 18.0222V19.7C26.0609 19.7815 26.0293 19.8519 25.9662 19.9111C25.9031 19.9704 25.8281 20 25.7413 20H18.8271C18.7403 20 18.6653 19.9704 18.6021 19.9111C18.539 19.8519 18.5074 19.7815 18.5074 19.7V12.3C18.5074 12.2185 18.539 12.1481 18.6021 12.0889C18.6653 12.0296 18.7403 12 18.8271 12H21.3844C21.4712 12 21.5462 12.0296 21.6093 12.0889C21.6725 12.1481 21.704 12.2185 21.704 12.3V17.7222H25.7413ZM13.2323 15.8145C13.3557 15.8145 13.4173 15.9121 13.4173 16.1074C13.4173 16.4438 13.1668 16.8796 12.6658 17.4149L12.3363 17.7296C11.3381 18.6664 10.3978 19.2903 9.5152 19.6013C8.96794 19.793 8.57484 19.784 8.33589 19.5742C8.13934 19.397 7.98326 19.1113 7.86764 18.717L7.72889 18.245L6.49756 18.9557L5.7865 19.3355C4.93864 19.7695 4.30273 19.9865 3.8788 19.9865C3.33539 19.9865 2.88255 19.7894 2.52028 19.3952C2.17343 19.0226 2 18.5904 2 18.0985C2 17.6139 2.20619 17.1816 2.61856 16.8019C3.20821 16.2593 4.13894 15.762 5.41074 15.3099C6.61318 14.8867 7.58437 14.6751 8.32433 14.6751C8.57484 14.6751 8.70009 14.7909 8.70009 15.0224C8.70009 15.1815 8.66733 15.3009 8.60181 15.3804C8.5363 15.46 8.40141 15.5414 8.19715 15.6246L7.46875 15.9175C6.38965 16.3407 5.59959 16.7802 5.09857 17.2359C4.95598 17.3625 4.88468 17.4855 4.88468 17.6048C4.88468 17.7242 4.98681 17.7839 5.19107 17.7839C5.39147 17.7839 5.8578 17.5813 6.59005 17.1762L7.06987 16.9104C7.81368 16.4908 8.43609 16.281 8.93711 16.281C9.36104 16.281 9.64238 16.4565 9.78112 16.8073C9.81581 16.9013 9.84857 16.9972 9.8794 17.0948C9.91023 17.1889 9.94106 17.2739 9.97189 17.3498C10.0413 17.5271 10.1029 17.6157 10.1569 17.6157C10.2147 17.6157 10.2956 17.5904 10.3997 17.5397C10.5037 17.4855 10.6174 17.4185 10.7408 17.339C10.8679 17.2558 10.999 17.1654 11.1339 17.0677L11.8334 16.5415C12.4538 16.0568 12.9202 15.8145 13.2323 15.8145ZM35.2482 19.1889C36.0532 18.6481 36.4558 17.8111 36.4558 16.6778V15.3222C36.4558 14.5741 36.2624 13.9519 35.8757 13.4556C35.4889 12.9593 34.964 12.5926 34.301 12.3556C33.6459 12.1185 32.8961 12 32.0516 12C31.207 12 30.4532 12.1185 29.7902 12.3556C29.1272 12.5926 28.6024 12.963 28.2156 13.4667C27.8368 13.963 27.6473 14.5889 27.6473 15.3444V16.6556C27.6473 17.8037 28.0459 18.6481 28.8431 19.1889C29.6482 19.7296 30.7177 20 32.0516 20C33.3855 20 34.451 19.7296 35.2482 19.1889ZM31.1636 17.5889C30.9505 17.4259 30.8439 17.1926 30.8439 16.8889V15.1111C30.8439 14.8074 30.9505 14.5741 31.1636 14.4111C31.3846 14.2481 31.6806 14.1667 32.0516 14.1667C32.4225 14.1667 32.7146 14.2519 32.9277 14.4222C33.1487 14.5852 33.2592 14.8185 33.2592 15.1222V16.8778C33.2592 17.1815 33.1487 17.4185 32.9277 17.5889C32.7146 17.7519 32.4225 17.8333 32.0516 17.8333C31.6806 17.8333 31.3846 17.7519 31.1636 17.5889ZM40.9301 19.7C40.9064 19.7667 40.8472 19.8333 40.7525 19.9C40.6657 19.9667 40.5512 20 40.4091 20H38.7516C38.6017 20 38.4754 19.9593 38.3728 19.8778C38.2781 19.7889 38.2228 19.6889 38.207 19.5778L37.207 12.2778V12.2444C37.207 12.1778 37.2307 12.1222 37.2781 12.0778C37.3333 12.0259 37.3965 12 37.4675 12H39.5039C39.6617 12 39.788 12.0444 39.8827 12.1333C39.9853 12.2222 40.0445 12.3333 40.0603 12.4667L40.5476 15.9778L41.381 14.3222C41.4047 14.2481 41.46 14.1778 41.5468 14.1111C41.6415 14.037 41.7599 14 41.902 14H42.707C42.8491 14 42.9635 14.037 43.0504 14.1111C43.1451 14.1778 43.2043 14.2481 43.228 14.3222L43.7679 15.9778L44.207 12.5C44.2228 12.3667 44.2781 12.2556 44.3728 12.1667C44.4754 12.0778 44.6056 12.0333 44.7635 12.0333H46.7998C46.8709 12.0333 46.9301 12.0593 46.9774 12.1111C47.0327 12.1556 47.0603 12.2111 47.0603 12.2778V12.3111L45.8316 19.5778C45.8158 19.6889 45.7566 19.7889 45.654 19.8778C45.5593 19.9593 45.4369 20 45.2869 20H43.6294C43.4874 20 43.369 19.9667 43.2743 19.9C43.1874 19.8333 43.1322 19.7667 43.1085 19.7L42.1577 17.2444L40.9301 19.7ZM12.9124 29.7486C12.9124 29.7105 12.9046 29.6762 12.8889 29.6457L11.4435 27.0171C12.2661 26.5524 12.6774 25.8019 12.6774 24.7657C12.6774 24.2019 12.5364 23.7105 12.2543 23.2914C11.9723 22.8724 11.565 22.5524 11.0323 22.3314C10.5074 22.1105 9.89244 22 9.1874 22H4.61634C4.53017 22 4.45575 22.0305 4.39308 22.0914C4.33041 22.1524 4.29907 22.2248 4.29907 22.3086V29.6914C4.29907 29.7752 4.33041 29.8476 4.39308 29.9086C4.45575 29.9695 4.53017 30 4.61634 30H7.15451C7.24068 30 7.31511 29.9695 7.37778 29.9086C7.44045 29.8476 7.47178 29.7752 7.47178 29.6914V27.4514H8.45885L9.49292 29.7143C9.53209 29.7981 9.59476 29.8667 9.68093 29.92C9.77494 29.9733 9.87678 30 9.98645 30H12.6539C12.7244 30 12.7831 29.9771 12.8301 29.9314C12.885 29.8781 12.9124 29.8171 12.9124 29.7486ZM9.34016 25.1771C9.24615 25.2838 9.11297 25.3371 8.94063 25.3371H7.47178V24.1257H8.94063C9.12081 24.1257 9.25398 24.1905 9.34016 24.32C9.43416 24.4419 9.48117 24.5867 9.48117 24.7543C9.48117 24.9219 9.43416 25.0629 9.34016 25.1771ZM15.9865 30C16.2372 30 16.4135 29.8705 16.5153 29.6114L16.8091 28.8114H19.6763L19.97 29.6114C20.0719 29.8705 20.2481 30 20.4988 30H22.7197C22.7902 30 22.849 29.9771 22.896 29.9314C22.9508 29.8781 22.9782 29.8171 22.9782 29.7486L22.9665 29.68L20.4048 22.3771C20.3735 22.2781 20.3147 22.1905 20.2285 22.1143C20.1424 22.0381 20.0249 22 19.876 22H16.6093C16.4605 22 16.3429 22.0381 16.2568 22.1143C16.1706 22.1905 16.1118 22.2781 16.0805 22.3771L13.5188 29.68L13.5071 29.7486C13.5071 29.8171 13.5306 29.8781 13.5776 29.9314C13.6324 29.9771 13.6951 30 13.7656 30H15.9865ZM17.4084 26.5829L18.2427 24.2057L19.077 26.5829H17.4084ZM32.245 22C32.3312 22 32.4056 22.0305 32.4683 22.0914C32.5309 22.1524 32.5623 22.2248 32.5623 22.3086V24.1486C32.5623 24.2324 32.5309 24.3048 32.4683 24.3657C32.4056 24.4267 32.3312 24.4571 32.245 24.4571H29.7186V29.6914C29.7186 29.7752 29.6872 29.8476 29.6246 29.9086C29.5619 29.9695 29.4875 30 29.4013 30H26.9806C26.8945 30 26.82 29.9695 26.7574 29.9086C26.6947 29.8476 26.6634 29.7752 26.6634 29.6914V24.4571H24.137C24.0508 24.4571 23.9764 24.4267 23.9137 24.3657C23.851 24.3048 23.8197 24.2324 23.8197 24.1486V22.3086C23.8197 22.2248 23.851 22.1524 23.9137 22.0914C23.9764 22.0305 24.0508 22 24.137 22H32.245ZM42.2051 27.8629C42.1424 27.8019 42.068 27.7714 41.9818 27.7714H37.2932V27.0514H41.218C41.3042 27.0514 41.3786 27.021 41.4413 26.96C41.5039 26.899 41.5353 26.8267 41.5353 26.7429V25.2571C41.5353 25.1733 41.5039 25.101 41.4413 25.04C41.3786 24.979 41.3042 24.9486 41.218 24.9486H37.2932V24.2286H41.8643C41.9505 24.2286 42.0249 24.1981 42.0876 24.1371C42.1502 24.0762 42.1816 24.0038 42.1816 23.92V22.3086C42.1816 22.2248 42.1502 22.1524 42.0876 22.0914C42.0249 22.0305 41.9505 22 41.8643 22H34.5553C34.4691 22 34.3947 22.0305 34.332 22.0914C34.2694 22.1524 34.238 22.2248 34.238 22.3086V29.6914C34.238 29.7752 34.2694 29.8476 34.332 29.9086C34.3947 29.9695 34.4691 30 34.5553 30H41.9818C42.068 30 42.1424 29.9695 42.2051 29.9086C42.2677 29.8476 42.2991 29.7752 42.2991 29.6914V28.08C42.2991 27.9962 42.2677 27.9238 42.2051 27.8629Z" fill="#F2F2F2"/>
</svg>
