<svg width="24" height="24" viewBox="0 0 24 24" fill="none" xmlns="http://www.w3.org/2000/svg">
<path fill-rule="evenodd" clip-rule="evenodd" d="M18 3H19C20.1 3 21 3.9 21 5V19C21 20.1 20.1 21 19 21H5C4.46957 21 3.96086 20.7893 3.58579 20.4142C3.21071 20.0391 3 19.5304 3 19L3.01 5C3.01 3.9 3.89 3 5 3H6V1H8V3H16V1H18V3ZM5 19H19V8H5V19ZM16.7618 11.6187C17.1414 11.1848 17.0584 10.5561 16.5763 10.2144C16.0942 9.87271 15.3956 9.94746 15.0159 10.3814L11.43 14.4796L8.91164 12.1247C8.4861 11.7268 7.78271 11.7147 7.34059 12.0977C6.89847 12.4807 6.88503 13.1138 7.31057 13.5117L10.7133 16.6935C10.9361 16.9018 11.2481 17.0131 11.569 16.9988C11.8898 16.9844 12.188 16.8458 12.3868 16.6187L16.7618 11.6187Z" fill="#168944"/>
<path fill-rule="evenodd" clip-rule="evenodd" d="M5.5636 21.0001H19C20.1 21.0001 21 20.1001 21 19.0001V5.00006C21 4.80574 20.9719 4.61767 20.9196 4.4397L17.6181 8.00006H19V19.0001H7.41814L5.5636 21.0001Z" fill="#0C6D33"/>
</svg>
